<svg version="1" xmlns="http://www.w3.org/2000/svg" width="933.333" height="933.333" viewBox="0 0 700 700"><path d="M203.8 38.8l-8.8.3-.1 11.7c0 6.4-.2 13.6-.3 15.9-.1 2.4 0 4.3.3 4.4 1.9.3 8 .8 18.2 1.3 22.4 1.2 33.5 2.8 43.6 6.1 4.3 1.4 9.6 2.9 11.8 3.5 7 1.7 21.4 14.2 35.9 30.9 3.8 4.4 8.6 13.7 8.6 16.6 0 1.3.9 4.4 1.9 6.8 2.8 6.4 3.3 13.5 4.7 61.7 1.1 34.7 1.1 267.8.1 306.5-1.4 51.9-1.8 56.9-4.7 64.9-1.1 2.8-2.2 6.7-2.5 8.6-1.1 6.5-7.9 15.6-22.1 29.7-10.4 10.3-18.2 15.9-23.4 16.8-1.9.3-7.8 1.9-13 3.5-12.1 3.8-18.7 4.6-40.1 4.9-9.6.1-17.5.4-17.7.5-1 1.1-1.9 32.3-.9 33.3.4.3 82.6.8 182.7 1.1l182 .4V633l-14.2-.1c-28.9-.1-43-2.5-58.3-9.9-18.6-8.9-40.5-30.8-44-43.9-.9-3.1-2.4-7.9-3.5-10.6-1-2.8-2.1-5.9-2.4-7-.7-2.5-1.6-24.8-2.2-50.5-.5-27.4-.5-311.1 0-324.5 1.8-41 3.4-52.3 9.1-64.1 2.8-5.7 5.8-9.5 14.3-18C474.5 88.7 482 82.7 488 81.5c1.9-.4 7.6-1.9 12.5-3.5 5-1.5 11.7-3.2 15-3.6 3.3-.4 6.5-.8 7-.9.6-.1 9.2-.3 19.3-.3L560 73V37.8l-173.7.4c-95.6.2-177.7.4-182.5.6zm216.7 37.3c4.4 1.2 5 1.7 5.3 4.4.5 4.2-1.2 9.3-7.9 23.3-10.1 20.9-11 23.8-13.4 42.2-2.7 21.3-3 41.9-3 207 0 142.2.5 193.2 1.9 200.7.2 1 .7 4.9 1.1 8.8 1.4 14.5 4.1 21.7 17.9 47.9 6.8 13 7.1 16.1 1.6 18.8-5.6 2.7-12.9 3.2-39.5 3.2-31.3-.1-48.9-1.3-56.2-3.8-4.9-1.6-3.9-5.2 7.3-25.5 7.6-14 14.6-32.7 15.9-42.6.3-2.2.7-5.6 1-7.5 1.2-9.2 1.7-72.6 1.7-201.5 0-134.6-.5-189.6-1.7-199.5-2.3-17.7-7.8-33.4-18.3-52.2-4-7.2-7.2-15.5-7.2-18.9 0-3.5 2.7-5.4 8.7-6 3.2-.3 22.5-.5 42.8-.4 27.4.2 38.3.6 42 1.6z"/><path d="M561.9 138.1c-10.8 1.6-13.7 5.5-13.3 17.4.9 25.6 1.2 47.6.7 49.4-.9 3.5-8.9 4.4-22.7 2.6-2.2-.3-9.5-.8-16.1-1.1-10.4-.5-12.5-.3-15.4 1.3-6.5 3.4-7.6 6.1-7.6 18.6 0 13.2 1.1 16.3 7 19.2 3.7 1.8 5.9 1.9 27 1.7 12.7-.1 24-.4 25.3-.7l2.2-.4-.2 111.7c-.2 99.4.2 132.9 1.7 141.2.2 1.4.7 4.3 1 6.5 1 7.4 4.7 19.9 7.7 26.4 3.3 6.9 15 20.1 22.5 25.3 4 2.7 10.4 5.5 14.8 6.4 1.1.2 3.4.7 5 1.1 1.7.3 3.9.8 5 .9 1.1.1 3.6.5 5.5.9 14.4 2.9 42.1-1.1 51.2-7.4 5.2-3.6 6.9-8.5 7.5-21.2.6-12.5-.6-17.6-4.3-18.5-4.2-1.1-11.1.6-15.3 3.6-5.3 3.9-10.2 4.9-21.9 4.5-12.1-.3-16-2.2-22.8-11-7.2-9.2-7.9-12.2-8.9-38.5-2-51.6-2.9-229-1.2-230.7.9-.8 18.6-.9 45.7-.3 21.3.5 25.1-.7 27.7-8.5 1.4-4.3 1-23.4-.7-26.7-2.8-5.8-10.9-7.1-34-5.3-6.3.5-17 .9-23.7 1-10.9 0-12.5-.2-15-2.1-3.6-2.7-3.7-5.6-.7-27.9 1.7-13.3 2.2-26.2 1.2-30.2-.7-2.8-5.5-7.7-7.6-7.9-.4 0-2.2-.4-4-.8-4.6-1.1-17.7-1.4-23.3-.5zm-455.5 68c-3.3.4-8.7 1.8-12 3.2-3.2 1.3-8 3.1-10.5 4.1-10.5 3.8-32.4 26.6-38 39.5-1.1 2.6-2.4 5.5-2.9 6.6-1.1 2.6-3.7 13.5-4.9 21-1 6.3-.8 27.9.3 33 .4 1.6 1.2 4.6 1.8 6.5.7 1.9 1.2 3.7 1.3 4 .3 2.2 6 12.5 9.4 16.9 2.2 3 4.1 6.5 4.1 7.7 0 2.1-4.5 8.8-9.2 13.8-3.1 3.3-8.5 12.7-10.2 17.6-2.4 7.3-3.4 15.8-3.2 27.5.2 10 .5 11.6 3.1 16.3 3.9 7.3 13 15.3 18.9 16.8 6.3 1.5 4.1 5.9-9.4 18.5-18.6 17.4-22.6 26.6-22.2 51.6.4 29 12.8 45.6 42.2 56.5 8.3 3.1 28.9 8.7 37.5 10.2 12.9 2.3 29.1 2.6 43.9.9 11.4-1.4 12-1.5 19.6-2.7 2.5-.4 5.9-1 7.5-1.2 16.8-2.5 22.8-4.4 38-12.1 16-8.1 24.9-15.2 31-24.8 12.5-19.4 18.4-41.3 15.3-56-4.3-20.6-23.3-41.6-45.8-50.7-14.9-6-24.6-7.4-55-7.7-44.3-.5-60.2-2.1-72.1-7.2-5.7-2.5-11.2-8.1-12.9-13.4-2.6-8 .4-21.5 6.3-27.9 3.9-4.2 10.2-4.7 15.3-1.2 4.8 3.2 19.8 8.2 29.4 9.7 6.5 1 21 .7 27-.6 1.4-.3 4.3-.8 6.5-1.1 14-2 30.5-8.1 39.9-14.8 13.7-9.8 26.7-27.5 31.5-42.9 2.7-8.9 3.3-13.1 3.6-28.3.4-20.2-.1-22.3-10.6-38.7-3.7-5.7-4.8-11.7-2.6-13.9 1.3-1.3 2.8-1.3 11.9-.1 14.3 1.8 23 2.2 25.1 1.1 3.4-1.8 6-9.6 5.9-17.6-.1-7-1.3-13.4-3-16-1.4-2.1-4.8-2.4-44.7-3.7-26.1-1-101-1.2-107.1-.4zm45.6 34.4c11.7 2.3 21.7 10 29.4 22.5 13.7 22.2 9.8 51.3-9.5 70.8-16 16.3-43.6 19.4-65.9 7.6-8-4.2-9.4-5.4-15.2-12.6-4.8-5.8-8.2-13.6-9.9-22.3-1-5.3-1.3-17.2-.4-21.5.2-1.4.7-3.9 1-5.5 1.9-9.5 9-22.3 16.2-29.3 6.6-6.3 11.8-8.6 21.8-9.8 2.8-.4 5.1-.8 5.3-.9.6-.6 23.7.3 27.2 1zm23.5 219.4c13 3.1 19.9 6.7 27.5 14.1 3.1 3 6.5 7.3 7.5 9.5 3.8 8 2.5 19.1-3.6 30.5-3.5 6.5-5.8 9.3-11.9 14.1-24.8 19.7-89.3 20.4-114.7 1.4-11-8.3-13.9-14.9-13.1-29.6.6-10.1 3.2-15.3 15.3-30.1l9.5-11.7 39.2.3c26 .2 41 .7 44.3 1.5z"/></svg>