<svg version="1" xmlns="http://www.w3.org/2000/svg" width="320" height="320" viewBox="0 0 240 240"><path d="M66.9 13.5c0 .3-.1 2.9-.1 5.7l-.1 5.3 9.4.5c5.2.3 10.4 1.1 11.6 1.8 1.2.7 3.1 1.2 4.3 1.2 2.8 0 15 12.3 15 15.2.1 1.3.7 3.4 1.5 4.8 2.1 3.7 2.1 142.3 0 146-.8 1.4-1.4 3.5-1.5 4.8 0 2.8-12.1 15.2-14.9 15.2-1 0-3.5.7-5.4 1.5-2.2.9-6.8 1.5-11.6 1.5h-7.9l-.4 5.6c-.1 3.1-.1 5.8.1 6 .2.2 28.5.4 62.8.4H192v-12h-7.7c-11.8 0-19.4-2.9-26.5-10.2-3.5-3.5-5.8-6.7-5.8-8.1-.1-1.2-.7-3.3-1.5-4.7-1.2-2.1-1.4-13.7-1.5-72 0-81.7-.5-77.4 9.7-87.7 3.5-3.5 7.1-6.3 8.2-6.3 1 0 3.5-.7 5.4-1.5 2.2-.9 6.8-1.5 11.7-1.5h8V13h-62.5c-34.4 0-62.5.2-62.6.5zM146 26.9c.5 1-.1 3.3-1.9 7-6.9 13.9-6.6 10.2-6.6 87.6 0 77.3-.2 74.2 6.5 86.1 4.1 7.2 3.9 8.1-1.4 8.9-6.9 1.1-29.3.2-30.7-1.2-.9-.9-.4-2.4 2-6.4 1.8-2.8 4.2-8.1 5.4-11.8 2.2-6.5 2.2-7.4 2.2-76.1 0-69.3 0-69.5-2.2-76.3-1.3-3.8-3.2-8.1-4.3-9.7-1.1-1.6-2.3-4.2-2.6-5.8-.6-2.8-.3-3.1 2.2-3.5 1.6-.3 9.1-.4 16.7-.3 10.8.1 14 .4 14.7 1.5z"/><path d="M189.5 48.4c-1.6 1.2-1.8 2.3-1.2 11.2.4 5.4.3 10.5-.1 11.1-.6 1-2.8 1-9.2.3-10.4-1.2-12-.2-12 7 0 6.6 1.1 7.2 12.1 6.8l9.2-.3-.2 42.1c-.2 37.4 0 42.8 1.5 49.5 1.6 6.3 2.5 8.1 6.4 11.9 4 4.1 5.2 4.7 11.7 5.9 5.7 1 8.4 1 13 .1 8.1-1.7 9.3-3 9.3-10.2 0-5.7 0-5.8-2.9-5.8-1.6 0-3.4.7-4.1 1.5-.8 1-3 1.5-6.4 1.5-4.4 0-5.6-.4-7.8-2.7-1.4-1.6-2.9-3.9-3.3-5.3-1.3-3.9-2.2-87.4-1-88.3.6-.4 5.8-.4 11.7-.1 13 .8 13.8.4 13.8-7.2 0-7.1-1-7.6-13.6-6.5-11.5 1-13.8.3-13-3.7.3-1.5.8-6 1.2-10 .5-6.4.4-7.5-1.2-8.7-2.4-1.8-11.5-1.9-13.9-.1zM33 71.5c-1.4.8-3.2 1.4-4 1.5-2.1 0-9.4 7.1-12.3 11.8-3.5 5.6-5 16.3-3.4 23.3.8 3.1 2.3 6.7 3.5 8 2.8 2.9 2.7 3.9 0 6.9-4.2 4.5-5.8 8.7-5.8 15.3 0 5.5.3 6.6 2.9 9.5 1.7 1.7 3.7 3.2 4.5 3.2 2.7 0 1.7 2.4-2.4 5.9-6.6 5.6-8.3 9.3-8.3 17.5.1 12.7 6 18.6 22.5 22.5 11 2.6 14.9 2.5 32.8-.5 4.9-.8 13.9-5.3 17.7-8.9 3.3-3.1 7.6-12.4 8-17.5.9-9.4-6.7-19.2-17.8-23.1-4.3-1.5-8.2-1.9-19.8-1.9-17.6 0-24.3-1.6-26.2-6.3-1.8-4.2.6-11.1 4-11.5 1.3-.2 2.7.1 3 .7.4.6 3.4 1.8 6.7 2.7 5 1.4 7 1.4 13.7.4 10.8-1.7 16-4.5 21.2-11.4 4.5-5.9 5.9-10.3 6-18.7 0-6.8-.3-7.9-2.8-11.3-3.2-4.1-3.2-7.3-.2-6.7 1.1.2 4.1.5 6.7.8 4.5.5 4.8.3 5.9-2.3 1.1-3 .5-8.9-1.1-9.9-.5-.3-12.5-.7-26.7-1-21.2-.4-26.2-.2-28.3 1zm23.1 12.3c11 7.3 12 22.2 2.2 31.4-6.4 6-18.5 5.8-25.5-.5-8.5-7.6-6.8-24.5 3-30.8 3.8-2.5 16.7-2.6 20.3-.1zm8.2 75.1c5.2 2.2 8.7 6.3 8.7 10.1 0 4.4-2.6 9.5-6.2 12.2-9.5 7.1-32.7 6.8-40.5-.6-2.9-2.6-3.3-3.6-3.3-8.1s.5-5.7 4.3-10.2l4.2-5.2h14.2c11.7-.1 14.9.2 18.6 1.8z"/></svg>