<svg version="1" xmlns="http://www.w3.org/2000/svg" width="320" height="320" viewBox="0 0 240 240"><path d="M67.4 14.4c-.3.7-.4 3.3-.2 5.7l.3 4.4 8 .5c8.5.6 16 2.5 18.6 4.7.8.7 2 1.3 2.5 1.3 1.4 0 6.8 5.9 8.7 9.5 4.7 9 4.7 8.8 4.7 80.4 0 61.9-.2 68.1-1.8 73.1-5 15.5-13.5 21.6-32.2 22.9l-8.5.6v11h124v-11l-8.5-.6c-18.7-1.3-27.2-7.4-32.2-22.9-1.6-5-1.8-11.2-1.8-73s.2-68 1.8-73c5-15.5 13.5-21.6 32.2-22.9l8.5-.6v-11l-61.8-.3c-52-.2-61.8 0-62.3 1.2z"/><path d="M191 48.5c-2.4 1.3-2.5 1.9-3 11.7l-.5 10.3-8.5.3c-9.7.3-12 1.6-12 6.9 0 5.6 2.8 7.5 11.3 7.3 4-.1 7.7-.1 8.4-.1.9.1 1.3 11.1 1.6 44.8.4 50.9.5 51 7.7 58.4 4.1 4.1 5.2 4.6 11.5 5.7 5.5.9 8.4.8 13.3-.2 7.6-1.5 9.3-3.4 8.9-9.6-.2-5.1.7-4.8-12.2-3.4-6.3.7-9.9-1.8-11.5-7.7-.8-3-1.5-65.9-1-87.2 0-.4 4.6-.7 10.3-.7 12.7 0 14.7-1 14.7-7.5 0-5.8-1.4-6.5-13.2-6.5-5.1 0-9.9-.4-10.7-.9-1.2-.7-1.4-3-1.3-9.8.1-4.8-.1-9.3-.5-9.9-2.4-3.4-9-4.3-13.3-1.9zM31.3 72.1C21.8 76 15.1 84.3 13.2 94.8c-1.3 7.5-.1 15.9 3 21 2.2 3.6 2.2 3.7-2.7 11.7-1.9 3.2-2.4 5.4-2.5 10.8 0 6.5.1 6.8 3.9 10.6l3.9 3.9-3 3.4c-6.6 7.2-8 10.5-8 18.4 0 7.6 1.5 11.1 6.7 15.7 7.8 6.8 30.6 10 46.5 6.4 15.9-3.6 23.5-10.3 27.1-23.9 2.7-10.1-4.7-21.5-16.7-25.7-3.5-1.3-9.6-2-20.9-2.4-8.8-.3-17.7-1.2-19.9-1.9-4.6-1.5-6.1-4.6-4.9-10.3.6-3.1 1.3-4.1 3.1-4.3 1.3-.2 2.8.1 3.5.6.7.5 4 1.5 7.4 2.2 7.1 1.4 16.9.2 23.8-3.1 5.1-2.5 6.5-3.6 10-8.3 6.4-8.4 8.2-20.3 4.4-28.5-2.6-6-2-7.1 3.9-7.1 2.6 0 5.3-.5 6-1.2 1.6-1.6 1.5-9.3 0-10.6-.8-.5-12.1-1.2-26.3-1.6-23.9-.5-25.2-.5-30.2 1.5zM56.8 85c4.7 3.4 6.8 7 7.8 12.8.9 5.4-2 13.2-6.4 17.4-3.2 3.2-3.5 3.3-12 3.3-9.3 0-11.6-.9-15.8-6.4-2.7-3.7-2.8-18.3 0-22.4 3.7-5.4 8.3-7.7 15.7-7.7 5.7 0 7.1.4 10.7 3zm6.1 73.6c5.6 1.9 7.3 3.4 8.8 7.9 1.1 3.3-.1 8.6-2.7 12.1-6.5 8.9-33.9 10.1-42.7 1.8-2.8-2.6-3.3-3.8-3.3-7.5 0-4.7 1.3-7.3 6.3-12.7l3.1-3.2h12.7c9 0 14.1.5 17.8 1.6z"/></svg>